<svg width="60" height="60" viewBox="0 0 60 60" fill="none" xmlns="http://www.w3.org/2000/svg">
<path d="M13.8142 10.1947C10.6946 11.0371 7.86822 13.9916 5.37021 19.0106C2.97775 23.8398 0.972303 30.4963 0.268637 35.9306C-0.130106 39.0038 -0.0831953 42.1362 0.397643 44.0347C0.808114 45.6721 1.82843 47.0366 2.88393 47.357C4.52581 47.8553 6.75409 47.0485 9.47493 44.9839C10.9057 43.8804 14.2599 40.4988 15.7375 38.6359L16.8869 37.1765H29.9985H43.1101L44.2595 38.6241C45.831 40.6056 49.103 43.9041 50.698 45.1025C53.325 47.0841 55.4946 47.8434 57.1131 47.357C58.1686 47.0366 59.1889 45.6721 59.5994 44.0347C60.819 39.1817 59.1772 29.6064 55.7175 21.4074C53.3602 15.8189 50.5455 12.1169 47.5784 10.7286C46.0538 10.0048 44.3298 9.81499 42.6293 10.1828C40.7646 10.5862 38.5949 11.749 37.2111 13.1136L36.4019 13.9204H29.9985H23.5951L22.7859 13.1136C21.4021 11.749 19.2324 10.5862 17.3677 10.1828C16.3474 9.95738 14.6469 9.96924 13.8142 10.1947ZM44.2008 17.5275C45.6433 18.5004 45.397 20.8972 43.8021 21.5024C43.3447 21.6803 42.5003 21.6685 42.0429 21.4668C41.1868 21.1108 40.5769 19.9599 40.7294 19.0106C40.8349 18.3818 41.4096 17.6224 41.996 17.3495C42.6527 17.041 43.5675 17.1122 44.2008 17.5275ZM17.9658 18.3343C18.1183 18.5479 18.1535 18.975 18.1535 20.5294V22.4635H20.0534C22.5045 22.4635 22.3755 22.3567 22.3755 24.3856C22.3755 26.4621 22.481 26.379 20.0299 26.379H18.1535V28.3249V30.2827L17.8485 30.52C17.5671 30.7455 17.3794 30.7692 16.0894 30.7692C14.0839 30.7692 14.166 30.876 14.166 28.3368V26.379H12.313C9.82676 26.379 9.94404 26.4739 9.94404 24.4568C9.94404 22.3448 9.81503 22.4635 12.2544 22.4635H14.166V20.5294C14.166 17.9309 14.0488 18.0733 16.1597 18.0733C17.7078 18.0733 17.8016 18.0851 17.9658 18.3343ZM39.5214 22.2143C41.5034 23.4957 40.3424 26.6638 37.9968 26.3316C36.9296 26.1892 36.2025 25.3823 36.1204 24.2551C36.0266 22.8669 36.9296 21.8821 38.3369 21.8702C38.853 21.8702 39.0875 21.9414 39.5214 22.2143ZM48.6222 22.0956C48.8567 22.2143 49.1499 22.416 49.2555 22.5465C49.7598 23.1042 49.9591 24.2077 49.6894 24.9196C49.4079 25.679 48.4111 26.3672 47.5901 26.379C47.0155 26.379 46.2063 25.94 45.7841 25.3942C45.4557 24.9789 45.4205 24.8484 45.4205 24.1365C45.4205 23.4601 45.4674 23.2584 45.7371 22.8431C45.9248 22.5702 46.2649 22.2499 46.4995 22.1194C47.0858 21.8109 48.0475 21.799 48.6222 22.0956ZM44.0366 26.818C44.6934 27.1621 45.1625 27.9927 45.1625 28.7877C45.1625 29.4759 45.0218 29.82 44.5526 30.3302C44.0953 30.8285 43.6613 31.0184 42.9459 31.0184C40.9405 31.0184 39.9671 28.6334 41.3862 27.1977C42.1133 26.4621 43.0984 26.3316 44.0366 26.818Z" fill="url(#paint0_linear_2506_43991)"/>
<defs>
<linearGradient id="paint0_linear_2506_43991" x1="0" y1="47.5" x2="65.2479" y2="25.726" gradientUnits="userSpaceOnUse">
<stop stop-color="#6E5591"/>
<stop offset="1" stop-color="#333C7A"/>
</linearGradient>
</defs>
</svg>
