<svg width="60" height="60" viewBox="0 0 60 60" fill="none" xmlns="http://www.w3.org/2000/svg">
<g clipPath="url(#clip0_2506_43998)">
<path d="M20.8333 33.3333C20.8333 37.0166 17.85 40 14.1667 40C10.4833 40 7.5 37.0166 7.5 33.3333C7.5 29.65 10.4833 26.6666 14.1667 26.6666C17.85 26.6666 20.8333 29.65 20.8333 33.3333Z" fill="url(#paint0_linear_2506_43998)"/>
<path fillRule="evenodd" clipRule="evenodd" d="M14.1667 36.6666C15.0507 36.6666 15.8986 36.3154 16.5237 35.6903C17.1488 35.0652 17.5 34.2173 17.5 33.3333C17.5 32.4492 17.1488 31.6014 16.5237 30.9763C15.8986 30.3511 15.0507 30 14.1667 30C13.2826 30 12.4348 30.3511 11.8096 30.9763C11.1845 31.6014 10.8333 32.4492 10.8333 33.3333C10.8333 34.2173 11.1845 35.0652 11.8096 35.6903C12.4348 36.3154 13.2826 36.6666 14.1667 36.6666ZM14.1667 40C17.85 40 20.8333 37.0166 20.8333 33.3333C20.8333 29.65 17.85 26.6666 14.1667 26.6666C10.4833 26.6666 7.5 29.65 7.5 33.3333C7.5 37.0166 10.4833 40 14.1667 40Z" fill="url(#paint1_linear_2506_43998)"/>
<path d="M0 50.9084C0 45.8717 9.43833 43.3334 14.1667 43.3334C18.895 43.3334 28.3333 45.8717 28.3333 50.9084V60H0V50.9084Z" fill="url(#paint2_linear_2506_43998)"/>
<path fillRule="evenodd" clipRule="evenodd" d="M3.89 49.9717C3.36333 50.4917 3.33333 50.79 3.33333 50.91V56.6667H25V50.9084C25 50.7917 24.97 50.4917 24.4433 49.9717C23.8867 49.4234 22.9683 48.835 21.71 48.2967C19.1767 47.2117 16.0833 46.6667 14.1667 46.6667C12.25 46.6667 9.155 47.2117 6.62333 48.2967C5.365 48.835 4.44667 49.4234 3.89 49.9717ZM14.1667 43.3334C9.43833 43.3334 0 45.8717 0 50.9084V60H28.3333V50.9084C28.3333 45.8717 18.895 43.3334 14.1667 43.3334Z" fill="url(#paint3_linear_2506_43998)"/>
<path d="M52.4998 33.3333C52.4998 37.0166 49.5165 40 45.8332 40C42.1498 40 39.1665 37.0166 39.1665 33.3333C39.1665 29.65 42.1498 26.6666 45.8332 26.6666C49.5165 26.6666 52.4998 29.65 52.4998 33.3333Z" fill="url(#paint4_linear_2506_43998)"/>
<path fillRule="evenodd" clipRule="evenodd" d="M45.8332 36.6666C46.7172 36.6666 47.5651 36.3154 48.1902 35.6903C48.8153 35.0652 49.1665 34.2173 49.1665 33.3333C49.1665 32.4492 48.8153 31.6014 48.1902 30.9763C47.5651 30.3511 46.7172 30 45.8332 30C44.9491 30 44.1013 30.3511 43.4761 30.9763C42.851 31.6014 42.4998 32.4492 42.4998 33.3333C42.4998 34.2173 42.851 35.0652 43.4761 35.6903C44.1013 36.3154 44.9491 36.6666 45.8332 36.6666ZM45.8332 40C49.5165 40 52.4998 37.0166 52.4998 33.3333C52.4998 29.65 49.5165 26.6666 45.8332 26.6666C42.1498 26.6666 39.1665 29.65 39.1665 33.3333C39.1665 37.0166 42.1498 40 45.8332 40Z" fill="url(#paint5_linear_2506_43998)"/>
<path d="M36.6668 30C36.6668 33.6834 33.6835 36.6667 30.0002 36.6667C26.3168 36.6667 23.3335 33.6834 23.3335 30C23.3335 26.3167 26.3168 23.3334 30.0002 23.3334C33.6835 23.3334 36.6668 26.3167 36.6668 30Z" fill="url(#paint6_linear_2506_43998)"/>
<path fillRule="evenodd" clipRule="evenodd" d="M30.0002 33.3334C30.8842 33.3334 31.7321 32.9822 32.3572 32.3571C32.9823 31.7319 33.3335 30.8841 33.3335 30C33.3335 29.116 32.9823 28.2681 32.3572 27.643C31.7321 27.0179 30.8842 26.6667 30.0002 26.6667C29.1161 26.6667 28.2683 27.0179 27.6431 27.643C27.018 28.2681 26.6668 29.116 26.6668 30C26.6668 30.8841 27.018 31.7319 27.6431 32.3571C28.2683 32.9822 29.1161 33.3334 30.0002 33.3334ZM30.0002 36.6667C33.6835 36.6667 36.6668 33.6834 36.6668 30C36.6668 26.3167 33.6835 23.3334 30.0002 23.3334C26.3168 23.3334 23.3335 26.3167 23.3335 30C23.3335 33.6834 26.3168 36.6667 30.0002 36.6667Z" fill="url(#paint7_linear_2506_43998)"/>
<path d="M28.3334 11.3883C28.3334 9.25201 27.4847 7.20319 25.9741 5.69259C24.4635 4.18198 22.4147 3.33333 20.2784 3.33333H14.9967C12.8113 3.32982 10.712 4.1853 9.15149 5.71533C7.59098 7.24537 6.69427 9.32738 6.65469 11.5125C6.61511 13.6976 7.43584 15.8107 8.93991 17.3962C10.444 18.9818 12.5109 19.9127 14.6951 19.9883L15.0001 20V23.3333C15.0001 23.3333 28.3334 21.3883 28.3334 11.3883ZM33.3334 8.72667C33.3334 6.41221 34.2528 4.19255 35.8894 2.55598C37.5259 0.919414 39.7456 0 42.0601 0H51.6667C53.8769 0 55.9965 0.877974 57.5593 2.44078C59.1221 4.00358 60.0001 6.1232 60.0001 8.33333C60.0001 10.5435 59.1221 12.6631 57.5593 14.2259C55.9965 15.7887 53.8769 16.6667 51.6667 16.6667H48.3334V21.6667C48.3334 21.6667 33.3334 19.56 33.3334 8.72667ZM31.6667 50.9083C31.6667 45.8717 41.1051 43.3333 45.8334 43.3333C50.5617 43.3333 60.0001 45.8717 60.0001 50.9083V60H31.6667V50.9083Z" fill="url(#paint8_linear_2506_43998)"/>
<path fillRule="evenodd" clipRule="evenodd" d="M35.5569 49.9717C35.0302 50.4917 35.0002 50.79 35.0002 50.91V56.6667H56.6669V50.9083C56.6669 50.7917 56.6369 50.4917 56.1102 49.9717C55.5535 49.4233 54.6352 48.835 53.3769 48.2967C50.8435 47.2117 47.7502 46.6667 45.8335 46.6667C43.9169 46.6667 40.8219 47.2117 38.2902 48.2967C37.0319 48.835 36.1135 49.4233 35.5569 49.9717ZM45.8335 43.3333C41.1052 43.3333 31.6669 45.8717 31.6669 50.9083V60H60.0002V50.9083C60.0002 45.8717 50.5619 43.3333 45.8335 43.3333ZM30.0002 48.3333V47.575C30.0002 44.78 26.9219 42.7533 23.3252 41.5033C25.4124 40.5171 27.6917 40.0037 30.0002 40C32.3087 40.0037 34.588 40.5171 36.6752 41.5033C33.0802 42.7533 30.0002 44.78 30.0002 47.575V48.3333Z" fill="url(#paint9_linear_2506_43998)"/>
<path fillRule="evenodd" clipRule="evenodd" d="M30.0002 48.3333V47.575C30.0002 46.0867 30.8735 44.815 32.2335 43.7633C32.3115 43.7038 32.3904 43.6455 32.4702 43.5883C33.6302 42.745 35.1035 42.05 36.6752 41.505C35.1141 40.769 33.4432 40.2932 31.7285 40.0967C30.5805 39.9678 29.4216 39.9678 28.2735 40.0967C26.5584 40.2925 24.8869 40.7677 23.3252 41.5033C24.8969 42.05 26.3702 42.745 27.5319 43.5867C27.6119 43.645 27.6885 43.7033 27.7652 43.7633C29.1269 44.8133 30.0002 46.0867 30.0002 47.575V48.3333Z" fill="url(#paint10_linear_2506_43998)"/>
</g>
<defs>
<linearGradient id="paint0_linear_2506_43998" x1="7.5" y1="26.6666" x2="22.9425" y2="29.8875" gradientUnits="userSpaceOnUse">
<stop stop-color="#6E5591"/>
<stop offset="1" stop-color="#333C7A"/>
</linearGradient>
<linearGradient id="paint1_linear_2506_43998" x1="7.5" y1="26.6666" x2="22.9425" y2="29.8875" gradientUnits="userSpaceOnUse">
<stop stop-color="#6E5591"/>
<stop offset="1" stop-color="#333C7A"/>
</linearGradient>
<linearGradient id="paint2_linear_2506_43998" x1="0" y1="43.3334" x2="30.4186" y2="54.1189" gradientUnits="userSpaceOnUse">
<stop stop-color="#6E5591"/>
<stop offset="1" stop-color="#333C7A"/>
</linearGradient>
<linearGradient id="paint3_linear_2506_43998" x1="0" y1="43.3334" x2="30.4186" y2="54.1189" gradientUnits="userSpaceOnUse">
<stop stop-color="#6E5591"/>
<stop offset="1" stop-color="#333C7A"/>
</linearGradient>
<linearGradient id="paint4_linear_2506_43998" x1="39.1665" y1="26.6666" x2="54.609" y2="29.8875" gradientUnits="userSpaceOnUse">
<stop stop-color="#6E5591"/>
<stop offset="1" stop-color="#333C7A"/>
</linearGradient>
<linearGradient id="paint5_linear_2506_43998" x1="39.1665" y1="26.6666" x2="54.609" y2="29.8875" gradientUnits="userSpaceOnUse">
<stop stop-color="#6E5591"/>
<stop offset="1" stop-color="#333C7A"/>
</linearGradient>
<linearGradient id="paint6_linear_2506_43998" x1="23.3335" y1="23.3334" x2="38.776" y2="26.5542" gradientUnits="userSpaceOnUse">
<stop stop-color="#6E5591"/>
<stop offset="1" stop-color="#333C7A"/>
</linearGradient>
<linearGradient id="paint7_linear_2506_43998" x1="23.3335" y1="23.3334" x2="38.776" y2="26.5542" gradientUnits="userSpaceOnUse">
<stop stop-color="#6E5591"/>
<stop offset="1" stop-color="#333C7A"/>
</linearGradient>
<linearGradient id="paint8_linear_2506_43998" x1="6.65332" y1="0" x2="68.9831" y2="11.5586" gradientUnits="userSpaceOnUse">
<stop stop-color="#6E5591"/>
<stop offset="1" stop-color="#333C7A"/>
</linearGradient>
<linearGradient id="paint9_linear_2506_43998" x1="23.3252" y1="40" x2="61.9932" y2="54.7891" gradientUnits="userSpaceOnUse">
<stop stop-color="#6E5591"/>
<stop offset="1" stop-color="#333C7A"/>
</linearGradient>
<linearGradient id="paint10_linear_2506_43998" x1="23.3252" y1="40" x2="37.8392" y2="44.8496" gradientUnits="userSpaceOnUse">
<stop stop-color="#6E5591"/>
<stop offset="1" stop-color="#333C7A"/>
</linearGradient>
<clipPath id="clip0_2506_43998">
<rect width="60" height="60" fill="white"/>
</clipPath>
</defs>
</svg>
