<svg width="18" height="17" viewBox="0 0 18 17" fill="none" xmlns="http://www.w3.org/2000/svg">
<path d="M9 0.5C8.50754 0.5 8.01991 0.596996 7.56494 0.785451C7.10997 0.973907 6.69657 1.25013 6.34835 1.59835C6.00013 1.94657 5.72391 2.35997 5.53545 2.81494C5.347 3.26991 5.25 3.75754 5.25 4.25C5.25 4.74246 5.347 5.23009 5.53545 5.68506C5.72391 6.14003 6.00013 6.55343 6.34835 6.90165C6.69657 7.24987 7.10997 7.52609 7.56494 7.71455C8.01991 7.903 8.50754 8 9 8C9.49246 8 9.98009 7.903 10.4351 7.71455C10.89 7.52609 11.3034 7.24987 11.6517 6.90165C11.9999 6.55343 12.2761 6.14003 12.4645 5.68506C12.653 5.23009 12.75 4.74246 12.75 4.25C12.75 3.75754 12.653 3.26991 12.4645 2.81494C12.2761 2.35997 11.9999 1.94657 11.6517 1.59835C11.3034 1.25013 10.89 0.973907 10.4351 0.785451C9.98009 0.596996 9.49246 0.5 9 0.5Z" fill="white"/>
<path d="M4 9.5C3.50754 9.5 3.01991 9.597 2.56494 9.78545C2.10997 9.97391 1.69657 10.2501 1.34835 10.5983C1.00013 10.9466 0.723907 11.36 0.535451 11.8149C0.346996 12.2699 0.25 12.7575 0.25 13.25C0.25 13.7425 0.346996 14.2301 0.535451 14.6851C0.723907 15.14 1.00013 15.5534 1.34835 15.9016C1.69657 16.2499 2.10997 16.5261 2.56494 16.7145C3.01991 16.903 3.50754 17 4 17C4.49246 17 4.98009 16.903 5.43506 16.7145C5.89003 16.5261 6.30343 16.2499 6.65165 15.9016C6.99987 15.5534 7.27609 15.14 7.46455 14.6851C7.653 14.2301 7.75 13.7425 7.75 13.25C7.75 12.7575 7.653 12.2699 7.46455 11.8149C7.27609 11.36 6.99987 10.9466 6.65165 10.5983C6.30343 10.2501 5.89003 9.97391 5.43506 9.78545C4.98009 9.597 4.49246 9.5 4 9.5Z" fill="white"/>
<path d="M14 9.5C13.5075 9.5 13.0199 9.597 12.5649 9.78545C12.11 9.97391 11.6966 10.2501 11.3483 10.5983C11.0001 10.9466 10.7239 11.36 10.5355 11.8149C10.347 12.2699 10.25 12.7575 10.25 13.25C10.25 13.7425 10.347 14.2301 10.5355 14.6851C10.7239 15.14 11.0001 15.5534 11.3483 15.9016C11.6966 16.2499 12.11 16.5261 12.5649 16.7145C13.0199 16.903 13.5075 17 14 17C14.4925 17 14.9801 16.903 15.4351 16.7145C15.89 16.5261 16.3034 16.2499 16.6517 15.9016C16.9999 15.5534 17.2761 15.14 17.4645 14.6851C17.653 14.2301 17.75 13.7425 17.75 13.25C17.75 12.7575 17.653 12.2699 17.4645 11.8149C17.2761 11.36 16.9999 10.9466 16.6517 10.5983C16.3034 10.2501 15.89 9.97391 15.4351 9.78545C14.9801 9.597 14.4925 9.5 14 9.5Z" fill="white"/>
</svg>
