<svg width="18" height="18" viewBox="0 0 18 18" fill="none" xmlns="http://www.w3.org/2000/svg">
<path d="M16.8361 14.9064C17.2793 10.6469 17.2793 6.35292 16.8361 2.09343C16.6975 0.761115 15.1614 0.0862337 14.0863 0.885349L9.98271 3.93576C8.68914 4.89732 7.12021 5.41658 5.5084 5.41658H1.6792C1.12691 5.41658 0.679199 5.86429 0.679199 6.41658V10.5832C0.679199 11.1355 1.12691 11.5832 1.6792 11.5832L5.50839 11.5832C7.12021 11.5832 8.68914 12.1025 9.98271 13.0641L14.0863 16.1145C15.1614 16.9136 16.6975 16.2387 16.8361 14.9064Z" fill="white"/>
<path d="M6.09262 13.8019C6.15006 13.5774 6.10055 13.339 5.95848 13.156C5.8164 12.973 5.59773 12.8659 5.36604 12.8659L3.36604 12.8659C3.08196 12.8659 2.82226 13.0264 2.69522 13.2805L1.69522 15.2805C1.52444 15.6221 1.63756 16.0374 1.95794 16.2452L4.09191 17.6292C4.29452 17.7606 4.548 17.7864 4.77293 17.6985C4.99786 17.6106 5.16672 17.4198 5.22659 17.1859L6.09262 13.8019Z" fill="white"/>
</svg>
