<svg width="18" height="20" viewBox="0 0 18 20" fill="none" xmlns="http://www.w3.org/2000/svg">
<path d="M7.25 7.5C7.25 6.5335 8.0335 5.75 9 5.75C9.9665 5.75 10.75 6.5335 10.75 7.5C10.75 8.4665 9.9665 9.25 9 9.25C8.0335 9.25 7.25 8.4665 7.25 7.5Z" fill="white"/>
<path fill-rule="evenodd" clip-rule="evenodd" d="M2 7.5C2 3.63401 5.13401 0.5 9 0.5C12.866 0.5 16 3.63401 16 7.5C16 8.87219 15.6052 10.1522 14.9229 11.2325L17.6495 15.9551C17.7967 16.2101 17.7812 16.5276 17.6097 16.767C17.4382 17.0063 17.1425 17.1231 16.8537 17.0657L14.2376 16.5455L13.3801 19.0713C13.2854 19.35 13.0364 19.5477 12.7434 19.5765C12.4504 19.6054 12.1676 19.4601 12.0204 19.2051L9.30021 14.4937C9.20067 14.4979 9.10058 14.5 9 14.5C8.89943 14.5 8.79935 14.4979 8.6998 14.4937L5.97965 19.2051C5.83258 19.4599 5.5502 19.6051 5.25745 19.5766C4.96471 19.5481 4.71564 19.3511 4.62047 19.0728L3.75854 16.5522L1.14467 17.066C0.856063 17.1228 0.560933 17.0056 0.389877 16.7663C0.218821 16.527 0.203417 16.2099 0.350482 15.9551L3.07708 11.2325C2.39483 10.1522 2 8.87219 2 7.5ZM4.08592 12.4852C4.91817 13.3056 5.95488 13.9192 7.1127 14.2426L5.50579 17.0259L4.96599 15.4473C4.84463 15.0924 4.47972 14.8817 4.11167 14.9541L2.4747 15.2759L4.08592 12.4852ZM10.8873 14.2426L12.4918 17.0217L13.0287 15.4406C13.1497 15.0842 13.516 14.8727 13.8851 14.9461L15.5229 15.2717L13.9141 12.4852C13.0818 13.3056 12.0451 13.9192 10.8873 14.2426ZM9 4.25C7.20507 4.25 5.75 5.70507 5.75 7.5C5.75 9.29493 7.20507 10.75 9 10.75C10.7949 10.75 12.25 9.29493 12.25 7.5C12.25 5.70507 10.7949 4.25 9 4.25Z" fill="white"/>
</svg>
